#!OML:ASF F:\VICON\USERDATA\INSTALL\rory3\rory3.ASF
:FULLY-SPECIFIED
:DEGREES
2383
root -0.575921 17.4494 2.49154 7.48538 -36.8617 12.9185
lowerback 6.82704 -9.33016 -1.90616
upperback 3.84625 -12.7307 9.14039
thorax 2.87251 -6.76255 11.111
lowerneck -24.4131 -5.0829 -13.707
upperneck 36.3645 -3.31362 2.72112
head 18.0546 -3.03892 2.8305
rclavicle -5.24792e-014 -1.90833e-014
rhumerus 25.8364 29.4448 -44.268
rradius 63.7814
rwrist 36.8833
rhand -34.1986 -23.8665
rfingers 7.12502
rthumb -7.37123 -53.7181
lclavicle -5.24792e-014 -1.90833e-014
lhumerus 60.3645 -48.1017 49.9701
lradius 38.0408
lwrist -27.9724
lhand -46.5792 47.6494
lfingers 7.12502
lthumb -19.3027 76.7114
rfemur -42.3369 11.9447 -3.1956
rtibia 42.6147
rfoot -11.7995 3.71955
rtoes 2.53238
lfemur -14.2139 17.6395 -29.007
ltibia 22.4873
lfoot -13.8002 24.3307
ltoes -15.1153
2384
root -0.591665 17.444 2.49457 7.46018 -37.0212 13.0775
lowerback 6.83066 -9.35231 -1.9129
upperback 3.89818 -12.7686 9.19688
thorax 2.95124 -6.79007 11.1715
lowerneck -24.511 -5.00332 -13.6548
upperneck 36.3328 -3.15776 2.63047
head 18.0395 -2.98136 2.81292
rclavicle 1.36764e-013 -5.24792e-014
rhumerus 26.3795 29.2572 -43.7537
rradius 63.9076
rwrist 36.6363
rhand -32.9048 -25.3158
rfingers 7.12502
rthumb -6.12226 -55.2073
lclavicle 1.36764e-013 -5.24792e-014
lhumerus 61.4181 -47.9048 48.7188
lradius 38.1918
lwrist -26.2588
lhand -47.3641 46.8822
lfingers 7.12502
lthumb -20.0572 75.867
rfemur -42.5325 12.0088 -3.32879
rtibia 42.7996
rfoot -11.8129 3.7907
rtoes 2.35188
lfemur -14.2173 17.8481 -29.1457
ltibia 22.4448
lfoot -13.8524 24.2688
ltoes -15.0841
2385
root -0.607418 17.4363 2.49613 7.4156 -37.2637 13.2745
lowerback 6.86656 -9.30991 -2.02313
upperback 3.92537 -12.7258 9.28733
thorax 3.00077 -6.7812 11.3369
lowerneck -24.5421 -4.97134 -13.7654
upperneck 36.2594 -3.05485 2.64737
head 17.9992 -2.94975 2.86137
rclavicle 2.8625e-014 -1.90833e-014
rhumerus 26.8573 29.0887 -43.1428
rradius 64.0714
rwrist 36.4594
rhand -31.4682 -27.1759
rfingers 7.12502
rthumb -4.7352 -57.103
lclavicle 2.8625e-014 -1.90833e-014
lhumerus 62.362 -47.7557 47.8116
lradius 38.2906
lwrist -24.6882
lhand -47.9046 46.9966
lfingers 7.12502
lthumb -20.5768 75.926
rfemur -42.783 12.1225 -3.50498
rtibia 42.952
rfoot -11.7662 3.92199
rtoes 2.74473
lfemur -14.2429 17.9383 -29.314
ltibia 22.4203
lfoot -13.8774 24.3764
ltoes -15.1329
2386
root -0.619961 17.4329 2.49868 7.43528 -37.3931 13.2631
lowerback 6.97525 -9.27842 -1.89629
upperback 3.95603 -12.678 9.37094
thorax 2.95688 -6.75736 11.3801
lowerneck -24.5453 -4.94504 -13.718
upperneck 36.201 -3.01204 2.59501
head 17.9598 -2.93043 2.83757
rclavicle 1.145e-013 -5.56597e-014
rhumerus 27.2174 28.8274 -42.6958
rradius 64.1416
rwrist 36.4991
rhand -29.8985 -27.7895
rfingers 7.12502
rthumb -3.21945 -57.7449
lclavicle 1.145e-013 -5.56597e-014
lhumerus 63.1052 -47.5469 47.3475
lradius 37.9223
lwrist -23.9994
lhand -48.8316 48.132
lfingers 7.12502
lthumb -21.4673 76.9626
rfemur -42.9041 12.3132 -3.50093
rtibia 43.052
rfoot -11.8183 3.84988
rtoes 2.88597
lfemur -14.2161 18.0044 -29.2769
ltibia 22.4165
lfoot -13.9081 24.3921
ltoes -15.2111
2387
root -0.629777 17.4339 2.50199 7.4887 -37.5054 13.1424
lowerback 7.106 -9.2255 -1.64025
upperback 4.0397 -12.594 9.41963
thorax 2.91159 -6.71005 11.3142
lowerneck -24.6121 -4.9418 -13.57
upperneck 36.1301 -3.05846 2.5999
head 17.9359 -2.92152 2.8035
rclavicle 2.06736e-014 -2.06736e-014
rhumerus 27.6624 28.636 -42.1414
rradius 64.1205
rwrist 35.9753
rhand -28.8564 -28.2573
rfingers 7.12502
rthumb -2.21306 -58.2256
lclavicle 2.06736e-014 -2.06736e-014
lhumerus 63.8944 -47.2451 46.7391
lradius 37.5874
lwrist -24.071
lhand -49.594 50.2945
lfingers 7.12502
lthumb -22.1994 79.0397
rfemur -42.951 12.5311 -3.39985
rtibia 43.1117
rfoot -11.874 3.77428
rtoes 2.84028
lfemur -14.1712 18.1369 -29.1433
ltibia 22.4444
lfoot -14.028 24.3424
ltoes -15.3015
2388
root -0.641421 17.4333 2.5032 7.50682 -37.6044 13.2153
lowerback 7.12734 -9.23018 -1.60045
upperback 4.09019 -12.6041 9.47038
thorax 2.96099 -6.7204 11.3479
lowerneck -24.6685 -4.91897 -13.58
upperneck 36.0938 -3.02905 2.6571
head 17.9271 -2.90016 2.83799
rclavicle 7.31528e-014 2.70347e-014
rhumerus 28.3085 29.2567 -40.8645
rradius 64.179
rwrist 32.966
rhand -29.82 -30.3231
rfingers 7.12502
rthumb -3.14361 -60.2797
lclavicle 7.31528e-014 2.70347e-014
lhumerus 63.8964 -46.5761 47.1387
lradius 37.1363
lwrist -26.2901
lhand -49.6132 51.3649
lfingers 7.12502
lthumb -22.2178 80.108
rfemur -43.0563 12.6508 -3.48061
rtibia 43.159
rfoot -11.9266 3.75291
rtoes 3.01434
lfemur -14.2293 18.1487 -29.2059
ltibia 22.4796
lfoot -14.0438 24.4233
ltoes -15.4357
2389
root -0.654714 17.4321 2.5013 7.55222 -37.6446 13.2692
lowerback 7.07333 -9.28161 -1.52532
upperback 4.18811 -12.6804 9.48496
thorax 3.09978 -6.76499 11.3014
lowerneck -24.8837 -4.88148 -13.5495
upperneck 36.1659 -2.9795 2.73978
head 18.0139 -2.86611 2.88304
rclavicle -8.11041e-014 4.77083e-015
rhumerus 29.1628 30.4261 -39.2753
rradius 64.0093
rwrist 27.5298
rhand -33.735 -32.6767
rfingers 7.12502
rthumb -6.9238 -62.5435
lclavicle -8.11041e-014 4.77083e-015
lhumerus 62.4141 -45.0646 49.8849
lradius 35.9738
lwrist -33.0425
lhand -48.6973 44.3261
lfingers 7.12502
lthumb -21.3383 73.1713
rfemur -43.1788 12.6974 -3.51843
rtibia 43.2208
rfoot -11.9697 3.70691
rtoes 3.01409
lfemur -14.2909 18.1108 -29.2334
ltibia 22.4953
lfoot -14.071 24.4479
ltoes -15.4378
2390
root -0.666627 17.4319 2.50166 7.62606 -37.6571 13.2951
lowerback 7.00744 -9.30931 -1.35262
upperback 4.26376 -12.713 9.44565
thorax 3.1746 -6.7764 11.1432
lowerneck -25.0142 -4.85094 -13.4364
upperneck 36.2256 -3.01572 2.87107
head 18.0798 -2.84643 2.91869
rclavicle -6.04305e-014 9.54166e-015
rhumerus 29.8652 31.3316 -38.2391
rradius 63.5555
rwrist 22.4965
rhand -38.0963 -33.6591
rfingers 7.12502
rthumb -11.1321 -63.3438
lclavicle -6.04305e-014 9.54166e-015
lhumerus 64.3056 -45.2317 48.0232
lradius 39.5703
lwrist -22.7559
lhand -35.5561 48.4231
lfingers 7.12502
lthumb -8.6814 78.2246
rfemur -43.316 12.8096 -3.58053
rtibia 43.3107
rfoot -12.0689 3.66212
rtoes 2.98697
lfemur -14.3389 17.9214 -29.2384
ltibia 22.4807
lfoot -14.1133 24.5983
ltoes -15.2979
2391
root -0.678098 17.4281 2.5009 7.6145 -37.6757 13.3439
lowerback 7.06571 -9.32312 -1.26122
upperback 4.34711 -12.7286 9.42073
thorax 3.20851 -6.7833 11.0692
lowerneck -25.1273 -4.81602 -13.352
upperneck 36.2301 -3.03444 3.008
head 18.1098 -2.82007 2.96512
rclavicle 1.31993e-013 1.27222e-014
rhumerus 30.4297 31.821 -37.4727
rradius 63.3042
rwrist 19.4426
rhand -40.2743 -34.0735
rfingers 7.12502
rthumb -13.2322 -63.6336
lclavicle 1.31993e-013 1.27222e-014
lhumerus 65.617 -45.1255 46.6946
lradius 40.7473
lwrist -19.1666
lhand -29.4348 53.6463
lfingers 7.12502
lthumb -2.7716 83.6081
rfemur -43.4003 12.9947 -3.65867
rtibia 43.4221
rfoot -12.1952 3.53369
rtoes 2.67111
lfemur -14.323 17.7909 -29.2385
ltibia 22.4537
lfoot -14.1237 24.6961
ltoes -14.9794
2392
root -0.691776 17.4226 2.50071 7.6803 -37.7134 13.363
lowerback 7.04581 -9.37443 -1.16857
upperback 4.42368 -12.7978 9.39597
thorax 3.28898 -6.81801 10.9789
lowerneck -25.1562 -4.72399 -13.2192
upperneck 36.122 -2.98361 3.10768
head 18.045 -2.76003 2.99989
rclavicle 1.60618e-013 -8.11041e-014
rhumerus 30.9563 31.9952 -36.7054
rradius 63.4137
rwrist 18.3361
rhand -39.8585 -34.6619
rfingers 7.12502
rthumb -12.8314 -64.2476
lclavicle 1.60618e-013 -8.11041e-014
lhumerus 66.4192 -44.7943 45.8115
lradius 40.37
lwrist -15.8572
lhand -31.292 52.5633
lfingers 7.12502
lthumb -4.56511 82.4941
rfemur -43.5684 13.1496 -3.71047
rtibia 43.5604
rfoot -12.3139 3.41259
rtoes 2.63643
lfemur -14.3681 17.7907 -29.2356
ltibia 22.3906
lfoot -14.0334 24.7265
ltoes -15.0034
2393
root -0.704525 17.419 2.50016 7.71007 -37.7825 13.5365
lowerback 6.96522 -9.38804 -1.25064
upperback 4.48214 -12.8301 9.38182
thorax 3.41822 -6.84239 10.9856
lowerneck -25.2175 -4.69166 -13.0359
upperneck 36.0102 -2.97812 3.05288
head 17.9891 -2.73294 2.94209
rclavicle -3.18055e-014 3.81667e-014
rhumerus 31.42 31.8306 -35.9394
rradius 63.5934
rwrist 18.2183
rhand -37.9954 -34.9819
rfingers 7.12502
rthumb -11.0349 -64.6718
lclavicle -3.18055e-014 3.81667e-014
lhumerus 67.2123 -44.4524 45.024
lradius 39.8289
lwrist -14.9994
lhand -32.7774 52.8513
lfingers 7.12502
lthumb -5.99934 82.7464
rfemur -43.8223 13.2022 -3.89457
rtibia 43.7377
rfoot -12.4265 3.37049
rtoes 2.77401
lfemur -14.4509 17.7717 -29.3942
ltibia 22.2828
lfoot -13.9609 24.7642
ltoes -15.1417
2394
root -0.712731 17.4165 2.49834 7.64036 -37.8942 13.8638
lowerback 6.97167 -9.38071 -1.52425
upperback 4.48348 -12.8395 9.40511
thorax 3.48779 -6.86269 11.1604
lowerneck -25.3123 -4.70437 -13.0407
upperneck 36.0364 -2.96904 3.02737
head 18.0263 -2.73439 2.93284
rclavicle -4.45278e-014 5.56597e-014
rhumerus 32.0607 31.8041 -35.0847
rradius 63.5807
rwrist 18.1626
rhand -36.2788 -35.7512
rfingers 7.12502
rthumb -9.3788 -65.5226
lclavicle -4.45278e-014 5.56597e-014
lhumerus 67.6156 -43.9641 44.9763
lradius 39.378
lwrist -15.3551
lhand -33.4745 50.9881
lfingers 7.12502
lthumb -6.67233 80.863
rfemur -44.0802 13.1865 -4.19687
rtibia 43.9434
rfoot -12.4455 3.39679
rtoes 2.46244
lfemur -14.5046 17.7562 -29.7012
ltibia 22.1547
lfoot -13.9826 24.8143
ltoes -14.9666
2395
root -0.716919 17.4097 2.49641 7.46291 -38.004 14.4529
lowerback 7.02221 -9.39341 -2.00823
upperback 4.39593 -12.879 9.4324
thorax 3.49426 -6.90246 11.4705
lowerneck -25.4061 -4.691 -13.1119
upperneck 36.072 -2.86859 2.94919
head 18.0603 -2.71835 2.93057
rclavicle 1.51076e-013 -5.725e-014
rhumerus 32.7594 32.1822 -33.9813
rradius 63.6651
rwrist 17.2225
rhand -36.2692 -37.1628
rfingers 7.12502
rthumb -9.36957 -66.9345
lclavicle 1.51076e-013 -5.725e-014
lhumerus 67.872 -43.489 45.0285
lradius 39.3418
lwrist -14.9672
lhand -32.9731 48.936
lfingers 7.12502
lthumb -6.18824 78.8256
rfemur -44.4108 13.0497 -4.73965
rtibia 44.1466
rfoot -12.4485 3.53019
rtoes 2.18951
lfemur -14.6532 17.9127 -30.269
ltibia 22.033
lfoot -13.9155 24.6925
ltoes -14.9416
2396
root -0.722625 17.4017 2.4945 7.4301 -38.1307 14.6929
lowerback 7.08802 -9.38802 -2.18529
upperback 4.38634 -12.8816 9.45994
thorax 3.49738 -6.9134 11.6114
lowerneck -25.5166 -4.65781 -12.9902
upperneck 36.0833 -2.79432 2.80036
head 18.0794 -2.69408 2.85606
rclavicle -8.11041e-014 -1.27222e-014
rhumerus 33.2632 32.5314 -32.8925
rradius 63.9552
rwrist 15.4374
rhand -37.1228 -37.5342
rfingers 7.12502
rthumb -10.1931 -67.2673
lclavicle -8.11041e-014 -1.27222e-014
lhumerus 68.282 -43.1445 44.828
lradius 39.6274
lwrist -13.9092
lhand -30.6458 50.3181
lfingers 7.12502
lthumb -3.94111 80.2614
rfemur -44.6674 13.0599 -4.98078
rtibia 44.3159
rfoot -12.4661 3.6195
rtoes 2.32009
lfemur -14.7886 18.1248 -30.5164
ltibia 21.9884
lfoot -13.7011 24.6502
ltoes -15.4764
2397
root -0.731501 17.3991 2.49183 7.51686 -38.242 14.6219
lowerback 7.16384 -9.4377 -2.14076
upperback 4.50278 -12.9507 9.41032
thorax 3.57402 -6.95156 11.5335
lowerneck -25.7275 -4.55944 -12.6002
upperneck 36.1107 -2.73915 2.67596
head 18.1239 -2.63562 2.74369
rclavicle 2.38542e-014 -1.11319e-013
rhumerus 33.9543 32.6471 -32.4796
rradius 63.6798
rwrist 13.9932
rhand -37.838 -37.8525
rfingers 7.12502
rthumb -10.883 -67.5505
lclavicle 2.38542e-014 -1.11319e-013
lhumerus 68.7955 -42.7462 44.2618
lradius 39.844
lwrist -12.7465
lhand -28.6623 52.7948
lfingers 7.12502
lthumb -2.02553 82.7649
rfemur -44.8178 13.2083 -4.94845
rtibia 44.4222
rfoot -12.5267 3.65427
rtoes 2.61989
lfemur -14.8463 18.1907 -30.4418
ltibia 21.9963
lfoot -13.6906 24.7173
ltoes -15.5229
